<svg width="95" height="27" viewBox="0 0 95 27" fill="none" xmlns="http://www.w3.org/2000/svg">
<g id="Group">
<path id="Vector" d="M24.6938 -0.00012207H29.0622V26.9698H24.6938V-0.00012207Z" fill="white"/>
<path id="Vector_2" d="M44.2561 18.4239C44.2561 22.6024 40.8373 22.9822 39.6978 22.9822C37.0388 22.9822 36.6589 20.5132 36.6589 19.1837V8.73755H32.2905V18.9937C32.2905 21.4628 33.0502 23.742 34.5697 25.0715C35.8992 26.401 37.6085 26.9708 39.6978 26.9708C41.2172 26.9708 43.1165 26.5909 44.2561 25.4513V26.9708H48.6244V8.73755H44.2561V18.4239Z" fill="white"/>
<path id="Vector_3" d="M57.1689 2.0885H52.8006V8.73602H49.5718V12.9145H52.8006V26.9692H57.1689V12.9145H60.3977V8.73602H57.1689V2.0885Z" fill="white"/>
<path id="Vector_4" d="M74.0749 21.4616C73.1252 22.2213 71.7957 22.7911 70.4662 22.7911C67.4273 22.7911 65.3381 20.5119 65.3381 17.473C65.3381 14.4342 67.4273 12.345 70.4662 12.345C71.7957 12.345 73.1252 12.7248 74.0749 13.6745L74.6446 14.2442L77.6835 11.3953L76.9238 10.8255C75.2144 9.30609 72.9353 8.35645 70.4662 8.35645C65.1482 8.35645 61.1597 12.345 61.1597 17.663C61.1597 22.981 65.1482 26.9695 70.4662 26.9695C72.9353 26.9695 75.2144 26.0199 76.9238 24.5004L77.6835 23.9306L74.6446 20.8918L74.0749 21.4616Z" fill="white"/>
<path id="Vector_5" d="M93.068 10.2561C91.7385 8.92656 90.409 8.35677 88.3198 8.35677C86.8003 8.35677 85.2809 8.73662 84.1413 9.8762V-0.00012207H79.7729V26.9698H84.1413V16.9036C84.1413 12.7251 86.9903 12.3453 88.1298 12.3453C90.7888 12.3453 90.5989 14.8144 90.5989 16.1439V26.7799H94.9673V16.3338C94.9673 13.8647 94.3975 11.5856 93.068 10.2561Z" fill="white"/>
<path id="Vector_6" d="M70.2752 20.7021C71.9535 20.7021 73.3141 19.3416 73.3141 17.6633C73.3141 15.9849 71.9535 14.6244 70.2752 14.6244C68.5969 14.6244 67.2363 15.9849 67.2363 17.6633C67.2363 19.3416 68.5969 20.7021 70.2752 20.7021Z" fill="white"/>
<path id="Vector_7" d="M18.6131 20.3227C17.0936 21.8421 14.8145 22.7918 12.3454 22.7918C7.59717 22.7918 4.17844 18.9932 4.17844 13.8651C4.17844 8.73703 7.59717 4.93844 12.5353 4.93844C14.8145 4.93844 17.0936 5.88809 18.803 7.59745L19.3728 8.16724L22.2217 5.3183L21.6519 4.74851C19.1829 2.27943 15.9541 0.949925 12.5353 0.949925C5.31802 0.759996 0 6.45787 0 13.8651C0 21.2724 5.31802 26.9702 12.3454 26.9702C15.7641 26.9702 19.1829 25.6407 21.462 23.1716L22.0318 22.6019L19.1829 19.7529L18.6131 20.3227Z" fill="white"/>
</g>
</svg>
