<svg width="33" height="24" viewBox="0 0 33 24" fill="none" xmlns="http://www.w3.org/2000/svg">
<rect width="33" height="24" fill="#1E1E1E"/>
<path d="M-1310 -5701C-1310 -5702.1 -1309.1 -5703 -1308 -5703H12200C12201.1 -5703 12202 -5702.1 12202 -5701V877C12202 878.104 12201.1 879 12200 879H-1308C-1309.1 879 -1310 878.104 -1310 877V-5701Z" fill="#404040"/>
<path d="M-1308 -5702H12200V-5704H-1308V-5702ZM12201 -5701V877H12203V-5701H12201ZM12200 878H-1308V880H12200V878ZM-1309 877V-5701H-1311V877H-1309ZM-1308 878C-1308.55 878 -1309 877.552 -1309 877H-1311C-1311 878.657 -1309.66 880 -1308 880V878ZM12201 877C12201 877.552 12200.6 878 12200 878V880C12201.7 880 12203 878.657 12203 877H12201ZM12200 -5702C12200.6 -5702 12201 -5701.55 12201 -5701H12203C12203 -5702.66 12201.7 -5704 12200 -5704V-5702ZM-1308 -5704C-1309.66 -5704 -1311 -5702.66 -1311 -5701H-1309C-1309 -5701.55 -1308.55 -5702 -1308 -5702V-5704Z" fill="white" fill-opacity="0.1"/>
<rect width="1440" height="288" transform="translate(-729 -176)" fill="#F2EFE9"/>
<rect width="32" height="24" transform="translate(0.5)" fill="#003399"/>
<path d="M16.5248 3.22789L16.144 4.49722L16.7787 4.62416L16.5248 3.22789Z" fill="#FFCC00"/>
<path d="M16.525 3.22791L16.9058 4.49724L16.2711 4.62417L16.525 3.22791Z" fill="#FFCC00"/>
<path d="M17.7172 4.1414L16.4036 4.07989L16.5188 4.77789L17.7172 4.1414Z" fill="#FFCC00"/>
<path d="M17.71 4.12928L16.6756 4.86493L16.3256 4.23433L17.71 4.12928Z" fill="#FFCC00"/>
<path d="M17.2831 5.5346L16.8135 4.27576L16.2445 4.51755L17.2831 5.5346Z" fill="#FFCC00"/>
<path d="M17.2789 5.53983L16.2183 4.69723L16.6342 4.2453L17.2789 5.53983Z" fill="#FFCC00"/>
<path d="M15.3321 4.1414L16.6457 4.07989L16.5305 4.77789L15.3321 4.1414Z" fill="#FFCC00"/>
<path d="M15.3393 4.12928L16.3737 4.86493L16.7238 4.23433L15.3393 4.12928Z" fill="#FFCC00"/>
<path d="M15.7662 5.53461L16.2358 4.27577L16.8049 4.51756L15.7662 5.53461Z" fill="#FFCC00"/>
<path d="M15.7704 5.53983L16.8311 4.69723L16.4151 4.2453L15.7704 5.53983Z" fill="#FFCC00"/>
<path d="M16.5248 18.4599L16.144 19.7292L16.7787 19.8562L16.5248 18.4599Z" fill="#FFCC00"/>
<path d="M16.525 18.4599L16.9058 19.7292L16.2711 19.8562L16.525 18.4599Z" fill="#FFCC00"/>
<path d="M17.7172 19.3734L16.4036 19.3119L16.5188 20.0099L17.7172 19.3734Z" fill="#FFCC00"/>
<path d="M17.71 19.3613L16.6756 20.0969L16.3256 19.4663L17.71 19.3613Z" fill="#FFCC00"/>
<path d="M17.2831 20.7666L16.8135 19.5078L16.2445 19.7496L17.2831 20.7666Z" fill="#FFCC00"/>
<path d="M17.2789 20.7719L16.2183 19.9292L16.6342 19.4773L17.2789 20.7719Z" fill="#FFCC00"/>
<path d="M15.3321 19.3734L16.6457 19.3119L16.5305 20.0099L15.3321 19.3734Z" fill="#FFCC00"/>
<path d="M15.3393 19.3613L16.3737 20.0969L16.7238 19.4663L15.3393 19.3613Z" fill="#FFCC00"/>
<path d="M15.7662 20.7666L16.2358 19.5078L16.8049 19.7496L15.7662 20.7666Z" fill="#FFCC00"/>
<path d="M15.7704 20.7719L16.8311 19.9293L16.4151 19.4773L15.7704 20.7719Z" fill="#FFCC00"/>
<path d="M8.90863 10.8439L8.52783 12.1132L9.1625 12.2401L8.90863 10.8439Z" fill="#FFCC00"/>
<path d="M8.90875 10.8439L9.28955 12.1132L8.65488 12.2401L8.90875 10.8439Z" fill="#FFCC00"/>
<path d="M10.101 11.7574L8.78739 11.6959L8.9026 12.3939L10.101 11.7574Z" fill="#FFCC00"/>
<path d="M10.0938 11.7452L9.05936 12.4809L8.70935 11.8503L10.0938 11.7452Z" fill="#FFCC00"/>
<path d="M9.6669 13.1506L9.19726 11.8917L8.62824 12.1335L9.6669 13.1506Z" fill="#FFCC00"/>
<path d="M9.66269 13.1558L8.60204 12.3132L9.01803 11.8613L9.66269 13.1558Z" fill="#FFCC00"/>
<path d="M7.7159 11.7574L9.0295 11.6959L8.91429 12.3939L7.7159 11.7574Z" fill="#FFCC00"/>
<path d="M7.72306 11.7452L8.75753 12.4809L9.10755 11.8503L7.72306 11.7452Z" fill="#FFCC00"/>
<path d="M8.14999 13.1506L8.61964 11.8917L9.18865 12.1335L8.14999 13.1506Z" fill="#FFCC00"/>
<path d="M8.15421 13.1558L9.21485 12.3132L8.79887 11.8613L8.15421 13.1558Z" fill="#FFCC00"/>
<path d="M12.0551 6.61835L13.116 5.77406L12.7009 5.32315L12.0551 6.61835Z" fill="#FFCC00"/>
<path d="M12.0509 6.61289L12.5218 5.35371L13.09 5.59428L12.0509 6.61289Z" fill="#FFCC00"/>
<path d="M11.6112 5.19678L12.679 5.9404L13.0089 5.33796L11.6112 5.19678Z" fill="#FFCC00"/>
<path d="M11.6086 5.20374L12.929 5.18118L12.8379 5.85572L11.6086 5.20374Z" fill="#FFCC00"/>
<path d="M12.8253 4.31818L12.4328 5.5779L13.026 5.67091L12.8253 4.31818Z" fill="#FFCC00"/>
<path d="M12.8329 4.3244L13.1564 5.54681L12.5563 5.70201L12.8329 4.3244Z" fill="#FFCC00"/>
<path d="M13.5477 6.58721L12.5003 5.82122L12.9629 5.32314L13.5477 6.58721Z" fill="#FFCC00"/>
<path d="M13.5436 6.59214L13.1385 5.349L12.5306 5.64617L13.5436 6.59214Z" fill="#FFCC00"/>
<path d="M14.0262 5.17351L12.9137 5.9351L12.6107 5.3961L14.0262 5.17351Z" fill="#FFCC00"/>
<path d="M14.0236 5.16886L12.694 5.23404L12.7528 5.85572L14.0236 5.16886Z" fill="#FFCC00"/>
<path d="M10.7455 9.43649L10.2746 8.1773L9.70637 8.41787L10.7455 9.43649Z" fill="#FFCC00"/>
<path d="M10.7413 9.44195L9.68038 8.59765L10.0954 8.14674L10.7413 9.44195Z" fill="#FFCC00"/>
<path d="M9.24868 9.41081L10.2961 8.64482L9.83349 8.14674L9.24868 9.41081Z" fill="#FFCC00"/>
<path d="M9.25279 9.41576L9.65793 8.17262L10.2658 8.46979L9.25279 9.41576Z" fill="#FFCC00"/>
<path d="M8.77015 7.99711L9.88268 8.7587L10.1857 8.2197L8.77015 7.99711Z" fill="#FFCC00"/>
<path d="M8.77282 7.99244L10.1024 8.05762L10.0436 8.67931L8.77282 7.99244Z" fill="#FFCC00"/>
<path d="M11.1852 8.02035L10.1174 8.76397L9.78747 8.16153L11.1852 8.02035Z" fill="#FFCC00"/>
<path d="M11.1878 8.02731L9.8674 8.00475L9.9585 8.67929L11.1878 8.02731Z" fill="#FFCC00"/>
<path d="M9.97108 7.14176L10.3636 8.40148L9.77037 8.49449L9.97108 7.14176Z" fill="#FFCC00"/>
<path d="M9.96349 7.14797L9.63998 8.37038L10.2401 8.52558L9.96349 7.14797Z" fill="#FFCC00"/>
<path d="M11.1739 15.6902L9.86512 15.5956L9.99743 16.3136L11.1739 15.6902Z" fill="#FFCC00"/>
<path d="M11.1635 15.6737L10.1527 16.4026L9.78845 15.7481L11.1635 15.6737Z" fill="#FFCC00"/>
<path d="M10.7732 17.0833L10.2365 15.8144L9.70783 16.0207L10.7732 17.0833Z" fill="#FFCC00"/>
<path d="M10.7601 17.095L9.68567 16.2034L10.0532 15.781L10.7601 17.095Z" fill="#FFCC00"/>
<path d="M9.26498 17.0437L10.3015 16.2811L9.80012 15.781L9.26498 17.0437Z" fill="#FFCC00"/>
<path d="M9.27652 17.0491L9.62811 15.8066L10.2682 16.1063L9.27652 17.0491Z" fill="#FFCC00"/>
<path d="M9.95147 14.786L10.3601 16.038L9.82347 16.1038L9.95147 14.786Z" fill="#FFCC00"/>
<path d="M9.9333 14.7972L9.68818 15.9819L10.2411 16.1598L9.9333 14.7972Z" fill="#FFCC00"/>
<path d="M8.76205 15.6383L10.1009 15.6743L10.075 16.3136L8.76205 15.6383Z" fill="#FFCC00"/>
<path d="M8.75309 15.6391L9.91099 16.3947L10.1866 15.8346L8.75309 15.6391Z" fill="#FFCC00"/>
<path d="M13.9288 18.2451L12.62 18.1505L12.7523 18.8685L13.9288 18.2451Z" fill="#FFCC00"/>
<path d="M13.9184 18.2286L12.9076 18.9575L12.5433 18.303L13.9184 18.2286Z" fill="#FFCC00"/>
<path d="M13.528 19.6382L12.9913 18.3693L12.4627 18.5757L13.528 19.6382Z" fill="#FFCC00"/>
<path d="M13.5149 19.6499L12.4406 18.7583L12.8081 18.3358L13.5149 19.6499Z" fill="#FFCC00"/>
<path d="M12.0199 19.5986L13.0563 18.836L12.555 18.3359L12.0199 19.5986Z" fill="#FFCC00"/>
<path d="M12.0314 19.604L12.383 18.3615L13.0231 18.6612L12.0314 19.604Z" fill="#FFCC00"/>
<path d="M12.7063 17.3409L13.1149 18.5929L12.5784 18.6586L12.7063 17.3409Z" fill="#FFCC00"/>
<path d="M12.6882 17.3521L12.4431 18.5368L12.996 18.7147L12.6882 17.3521Z" fill="#FFCC00"/>
<path d="M11.5169 18.1932L12.8558 18.2292L12.8298 18.8684L11.5169 18.1932Z" fill="#FFCC00"/>
<path d="M11.508 18.194L12.6659 18.9496L12.9415 18.3895L11.508 18.194Z" fill="#FFCC00"/>
<path d="M24.1407 10.8439L24.5215 12.1132L23.8868 12.2401L24.1407 10.8439Z" fill="#FFCC00"/>
<path d="M24.1406 10.8439L23.7598 12.1132L24.3944 12.2401L24.1406 10.8439Z" fill="#FFCC00"/>
<path d="M22.9483 11.7574L24.2619 11.6959L24.1467 12.3939L22.9483 11.7574Z" fill="#FFCC00"/>
<path d="M22.9555 11.7452L23.99 12.4809L24.34 11.8503L22.9555 11.7452Z" fill="#FFCC00"/>
<path d="M23.3824 13.1506L23.8521 11.8917L24.4211 12.1335L23.3824 13.1506Z" fill="#FFCC00"/>
<path d="M23.3866 13.1558L24.4473 12.3132L24.0313 11.8613L23.3866 13.1558Z" fill="#FFCC00"/>
<path d="M25.3334 11.7574L24.0198 11.6959L24.135 12.3939L25.3334 11.7574Z" fill="#FFCC00"/>
<path d="M25.3263 11.7452L24.2918 12.4809L23.9418 11.8503L25.3263 11.7452Z" fill="#FFCC00"/>
<path d="M24.8993 13.1506L24.4297 11.8917L23.8607 12.1335L24.8993 13.1506Z" fill="#FFCC00"/>
<path d="M24.8951 13.1558L23.8345 12.3132L24.2504 11.8613L24.8951 13.1558Z" fill="#FFCC00"/>
<path d="M20.9942 6.61836L19.9333 5.77407L20.3484 5.32315L20.9942 6.61836Z" fill="#FFCC00"/>
<path d="M20.9985 6.6129L20.5275 5.35372L19.9593 5.59429L20.9985 6.6129Z" fill="#FFCC00"/>
<path d="M21.4381 5.19679L20.3703 5.94041L20.0404 5.33797L21.4381 5.19679Z" fill="#FFCC00"/>
<path d="M21.4408 5.20375L20.1203 5.18119L20.2114 5.85573L21.4408 5.20375Z" fill="#FFCC00"/>
<path d="M20.224 4.31819L20.6165 5.57791L20.0233 5.67092L20.224 4.31819Z" fill="#FFCC00"/>
<path d="M20.2164 4.3244L19.8929 5.54681L20.4931 5.70201L20.2164 4.3244Z" fill="#FFCC00"/>
<path d="M19.5016 6.58722L20.549 5.82123L20.0864 5.32315L19.5016 6.58722Z" fill="#FFCC00"/>
<path d="M19.5057 6.59215L19.9109 5.349L20.5187 5.64617L19.5057 6.59215Z" fill="#FFCC00"/>
<path d="M19.0231 5.17351L20.1356 5.93511L20.4386 5.3961L19.0231 5.17351Z" fill="#FFCC00"/>
<path d="M19.0257 5.16886L20.3553 5.23405L20.2966 5.85573L19.0257 5.16886Z" fill="#FFCC00"/>
<path d="M22.3038 9.43649L22.7747 8.17731L23.343 8.41788L22.3038 9.43649Z" fill="#FFCC00"/>
<path d="M22.308 9.44195L23.3689 8.59766L22.9539 8.14675L22.308 9.44195Z" fill="#FFCC00"/>
<path d="M23.8006 9.41082L22.7532 8.64483L23.2158 8.14675L23.8006 9.41082Z" fill="#FFCC00"/>
<path d="M23.796 9.41577L23.3909 8.17263L22.783 8.4698L23.796 9.41577Z" fill="#FFCC00"/>
<path d="M24.2792 7.99711L23.1666 8.75871L22.8636 8.21971L24.2792 7.99711Z" fill="#FFCC00"/>
<path d="M24.2765 7.99245L22.9469 8.05763L23.0057 8.67932L24.2765 7.99245Z" fill="#FFCC00"/>
<path d="M21.8641 8.02036L22.9319 8.76398L23.2618 8.16154L21.8641 8.02036Z" fill="#FFCC00"/>
<path d="M21.8615 8.02731L23.1819 8.00475L23.0908 8.67929L21.8615 8.02731Z" fill="#FFCC00"/>
<path d="M23.0782 7.14177L22.6857 8.40149L23.2789 8.4945L23.0782 7.14177Z" fill="#FFCC00"/>
<path d="M23.0858 7.14798L23.4093 8.37038L22.8092 8.52558L23.0858 7.14798Z" fill="#FFCC00"/>
<path d="M21.8754 15.6902L23.1842 15.5956L23.0519 16.3136L21.8754 15.6902Z" fill="#FFCC00"/>
<path d="M21.8858 15.6737L22.8966 16.4026L23.2609 15.7481L21.8858 15.6737Z" fill="#FFCC00"/>
<path d="M22.2762 17.0833L22.8129 15.8144L23.3415 16.0207L22.2762 17.0833Z" fill="#FFCC00"/>
<path d="M22.2893 17.095L23.3636 16.2034L22.9961 15.781L22.2893 17.095Z" fill="#FFCC00"/>
<path d="M23.7843 17.0437L22.7479 16.2811L23.2492 15.781L23.7843 17.0437Z" fill="#FFCC00"/>
<path d="M23.7728 17.0491L23.4212 15.8066L22.7811 16.1063L23.7728 17.0491Z" fill="#FFCC00"/>
<path d="M23.0979 14.786L22.6893 16.038L23.2258 16.1038L23.0979 14.786Z" fill="#FFCC00"/>
<path d="M23.116 14.7972L23.3611 15.9819L22.8082 16.1598L23.116 14.7972Z" fill="#FFCC00"/>
<path d="M24.2873 15.6383L22.9484 15.6743L22.9744 16.3136L24.2873 15.6383Z" fill="#FFCC00"/>
<path d="M24.2962 15.6391L23.1383 16.3947L22.8627 15.8346L24.2962 15.6391Z" fill="#FFCC00"/>
<path d="M19.1206 18.2451L20.4293 18.1505L20.297 18.8685L19.1206 18.2451Z" fill="#FFCC00"/>
<path d="M19.1309 18.2286L20.1417 18.9575L20.506 18.303L19.1309 18.2286Z" fill="#FFCC00"/>
<path d="M19.5213 19.6382L20.058 18.3693L20.5866 18.5757L19.5213 19.6382Z" fill="#FFCC00"/>
<path d="M19.5344 19.6499L20.6088 18.7583L20.2412 18.3359L19.5344 19.6499Z" fill="#FFCC00"/>
<path d="M21.0294 19.5986L19.993 18.836L20.4943 18.3359L21.0294 19.5986Z" fill="#FFCC00"/>
<path d="M21.0179 19.604L20.6663 18.3615L20.0262 18.6612L21.0179 19.604Z" fill="#FFCC00"/>
<path d="M20.343 17.3409L19.9344 18.5929L20.471 18.6586L20.343 17.3409Z" fill="#FFCC00"/>
<path d="M20.3611 17.3521L20.6063 18.5368L20.0533 18.7147L20.3611 17.3521Z" fill="#FFCC00"/>
<path d="M21.5324 18.1932L20.1935 18.2292L20.2195 18.8684L21.5324 18.1932Z" fill="#FFCC00"/>
<path d="M21.5413 18.194L20.3834 18.9496L20.1078 18.3895L21.5413 18.194Z" fill="#FFCC00"/>
</svg>
