<svg width="21" height="20" viewBox="0 0 21 20" fill="none" xmlns="http://www.w3.org/2000/svg">
<g clipPath="url(#clip0_0_975)">
<path d="M12.1687 6.66667H13.8354V8.33333C13.8354 8.79167 14.2104 9.16667 14.6687 9.16667C15.127 9.16667 15.502 8.79167 15.502 8.33333V6.66667H17.1687C17.627 6.66667 18.002 6.29167 18.002 5.83333C18.002 5.375 17.627 5 17.1687 5H15.502V3.33333C15.502 2.875 15.127 2.5 14.6687 2.5C14.2104 2.5 13.8354 2.875 13.8354 3.33333V5H12.1687C11.7104 5 11.3354 5.375 11.3354 5.83333C11.3354 6.29167 11.7104 6.66667 12.1687 6.66667ZM16.5104 12.725L14.3937 12.4833C13.8854 12.425 13.3854 12.6 13.027 12.9583L11.4937 14.4917C9.13535 13.2917 7.20202 11.3667 6.00202 9L7.54369 7.45833C7.90202 7.1 8.07702 6.59167 8.01869 6.09167L7.77702 3.99167C7.68535 3.15 6.96869 2.50833 6.12702 2.50833H4.68535C3.74369 2.50833 2.96035 3.29167 3.01869 4.23333C3.46035 11.35 9.15202 17.0333 16.2604 17.475C17.202 17.5333 17.9854 16.75 17.9854 15.8083V14.3667C17.9937 13.5333 17.352 12.8167 16.5104 12.725Z" fill="#141313"/>
</g>
<defs>
<clipPath id="clip0_0_975">
<rect width="20" height="20" fill="white" transform="translate(0.5)"/>
</clipPath>
</defs>
</svg>
